<mxfile host="app.diagrams.net" modified="2020-03-14T08:52:27.019Z" agent="Mozilla/5.0 (Windows NT 10.0; Win64; x64) AppleWebKit/537.36 (KHTML, like Gecko) Chrome/80.0.3987.132 Safari/537.36" etag="JWuF8UVm0_hco_bNzkde" version="12.8.4" type="github">
  <diagram id="zjRZJcL3vXd0Ajd076Mg" name="买卖点">
    <mxGraphModel dx="1038" dy="548" grid="1" gridSize="10" guides="1" tooltips="1" connect="1" arrows="1" fold="1" page="1" pageScale="1" pageWidth="827" pageHeight="1169" math="0" shadow="0">
      <root>
        <mxCell id="0" />
        <mxCell id="1" parent="0" />
        <mxCell id="6B-a7uznzQyvvIPYZY3W-1" value="" style="rounded=1;whiteSpace=wrap;html=1;fillColor=#f8cecc;strokeColor=#b85450;" vertex="1" parent="1">
          <mxGeometry x="230" y="170" width="110" height="20" as="geometry" />
        </mxCell>
        <mxCell id="6B-a7uznzQyvvIPYZY3W-2" value="" style="endArrow=none;html=1;rounded=0;" edge="1" parent="1">
          <mxGeometry width="50" height="50" relative="1" as="geometry">
            <mxPoint x="50" y="50" as="sourcePoint" />
            <mxPoint x="340" y="110" as="targetPoint" />
            <Array as="points">
              <mxPoint x="70" y="170" />
              <mxPoint x="100" y="110" />
              <mxPoint x="130" y="210" />
              <mxPoint x="160" y="160" />
              <mxPoint x="200" y="240" />
              <mxPoint x="230" y="170" />
              <mxPoint x="270" y="210" />
              <mxPoint x="290" y="140" />
              <mxPoint x="320" y="190" />
            </Array>
          </mxGeometry>
        </mxCell>
      </root>
    </mxGraphModel>
  </diagram>
</mxfile>
